<svg enable-background="new 0 0 384 218" height="218" viewBox="0 0 384 218" width="384" xmlns="http://www.w3.org/2000/svg" xmlns:xlink="http://www.w3.org/1999/xlink"><linearGradient id="a" gradientTransform="matrix(382 0 0 -216 875919 139112)" gradientUnits="userSpaceOnUse" x1="-2292.9829" x2="-2291.9829" y1="643.6771" y2="643.4247"><stop offset="0" stop-color="#d400a5"/><stop offset=".5206" stop-color="#1e76c9"/><stop offset="1" stop-color="#35ffee"/></linearGradient><path d="m82.22 217c50.43 0 80.79-24.46 80.79-62.94v-.14c0-32.19-18.77-49.64-61.74-58.51l-22.35-4.58c-24.92-5.15-36.23-13.73-36.23-28.32v-.14c0-16.45 15.04-27.75 39.25-27.89 23.21 0 39.11 10.73 41.54 28.75l.29 1.72h35.38l-.14-2.43c-2.15-35.33-31.66-59.08-76.78-59.08-44.55 0-76.5 24.6-76.64 60.94v.14c0 30.75 20.06 49.64 60.74 58.08l22.2 4.58c26.65 5.58 37.39 13.88 37.39 29.32v.14c0 17.74-16.33 29.32-42.4 29.32-25.93 0-44.12-11.01-46.84-28.75l-.29-1.72h-35.39l.14 2.15c2.44 37.04 33.67 59.36 81.08 59.36zm120.27-176.95c11.17 0 19.77-8.87 19.77-19.45 0-10.87-8.6-19.6-19.77-19.6s-19.91 8.73-19.91 19.6c0 10.58 8.74 19.45 19.91 19.45zm17.76 173.37v-151.63h-35.67v151.63zm62.4 0v-87.97c0-22.46 12.18-35.19 32.38-35.19 6.02 0 11.46.86 14.47 2v-32.18c-2.72-.72-6.88-1.43-11.32-1.43-17.48 0-30.08 11.01-34.81 29.32h-.72v-26.18h-35.67v151.63zm80.58-173.37c11.17 0 19.77-8.87 19.77-19.45 0-10.87-8.6-19.6-19.77-19.6s-19.91 8.73-19.91 19.6c0 10.58 8.74 19.45 19.91 19.45zm17.76 173.37v-151.63h-35.67v151.63z" fill="url(#a)"/></svg>